<svg width="25" height="24" viewBox="0 0 25 24" fill="none" xmlns="http://www.w3.org/2000/svg">
<path d="M3.5 3H9.5V0H0.5V9H3.5V3ZM9.5 21H3.5V15H0.5V24H9.5V21ZM15.5 3H21.5V9H24.5V0H15.5V3ZM15.5 21H21.5V15H24.5V24H15.5V21ZM12.5 6.75C11.8106 6.75 11.1279 6.88579 10.4909 7.14963C9.85395 7.41347 9.2752 7.80018 8.78769 8.28769C8.30018 8.7752 7.91347 9.35395 7.64963 9.99091C7.38579 10.6279 7.25 11.3106 7.25 12C7.25 12.6894 7.38579 13.3721 7.64963 14.0091C7.91347 14.646 8.30018 15.2248 8.78769 15.7123C9.2752 16.1998 9.85395 16.5865 10.4909 16.8504C11.1279 17.1142 11.8106 17.25 12.5 17.25C13.8924 17.25 15.2277 16.6969 16.2123 15.7123C17.1969 14.7277 17.75 13.3924 17.75 12C17.75 10.6076 17.1969 9.27226 16.2123 8.28769C15.2277 7.30312 13.8924 6.75 12.5 6.75Z" fill="white"/>
</svg>
