<svg width="39" height="39" viewBox="0 0 39 39" fill="none" xmlns="http://www.w3.org/2000/svg">
<path d="M25.3744 1.07455L36.8574 7.72937C38.1834 8.48745 38.9976 9.88127 39 11.3902V23.4092C39 24.1523 38.8019 24.8823 38.4255 25.5264C38.0491 26.1705 37.5076 26.7061 36.855 27.0797L17.9571 37.9256L17.9522 37.928C17.2952 38.3027 16.5494 38.5 15.7901 38.5C15.0308 38.5 14.285 38.3027 13.6281 37.928L2.12794 31.3259C1.47955 30.9533 0.941816 30.4198 0.56842 29.7787C0.195024 29.1375 -0.000969877 28.4112 3.60878e-06 27.6722V15.5933C3.60878e-06 14.864 0.190129 14.1587 0.536254 13.5421L0.546004 13.5302L0.570379 13.4846C0.936004 12.856 1.46982 12.3187 2.13038 11.942L21.0624 1.07215C21.7154 0.697437 22.4577 0.5 23.2135 0.5C23.9694 0.5 24.7117 0.697437 25.3646 1.07215L25.3695 1.07455H25.3744ZM22.9052 4.17885L5.42832 14.2115L15.4611 19.9403C15.5608 19.9967 15.6739 20.0264 15.7889 20.0264C15.904 20.0264 16.017 19.9967 16.1168 19.9403L33.5498 9.98923L23.5194 4.17885C23.4261 4.12579 23.3201 4.09786 23.2123 4.09786C23.1045 4.09786 22.9986 4.12579 22.9052 4.17885ZM3.97069 28.2168L13.9644 33.9576V23.2269C13.8498 23.1741 13.7376 23.1165 13.6281 23.0542L3.65625 17.3614V27.6722C3.65625 27.9002 3.77813 28.1065 3.97069 28.2168ZM24.9332 29.757L28.6406 27.6291V16.9535L24.9332 19.0694V29.757ZM17.9522 23.0542H17.9546C17.8474 23.1165 17.7353 23.1717 17.6231 23.2245V33.9528L21.2794 31.8537V21.1542L17.9522 23.0542ZM32.2969 25.5299L35.0147 23.9706H35.0196C35.1185 23.9141 35.2006 23.8328 35.2576 23.7351C35.3145 23.6374 35.3442 23.5267 35.3438 23.414V13.1271L32.2969 14.8664V25.5299Z" fill="#20007F"/>
</svg>
