<svg width="25" height="24" viewBox="0 0 25 24" fill="none" xmlns="http://www.w3.org/2000/svg">
<path d="M16.46 17.64L18.14 15.96L13.7 11.52V6H11.3V12.48L16.46 17.64ZM12.5 24C10.84 24 9.28 23.6848 7.82 23.0544C6.36 22.424 5.09 21.5692 4.01 20.49C2.93 19.41 2.0752 18.14 1.4456 16.68C0.816 15.22 0.5008 13.66 0.5 12C0.5 10.34 0.8152 8.78 1.4456 7.32C2.076 5.86 2.9308 4.59 4.01 3.51C5.09 2.43 6.36 1.5752 7.82 0.9456C9.28 0.316 10.84 0.0008 12.5 0C14.16 0 15.72 0.3152 17.18 0.9456C18.64 1.576 19.91 2.4308 20.99 3.51C22.07 4.59 22.9252 5.86 23.5556 7.32C24.186 8.78 24.5008 10.34 24.5 12C24.5 13.66 24.1848 15.22 23.5544 16.68C22.924 18.14 22.0692 19.41 20.99 20.49C19.91 21.57 18.64 22.4252 17.18 23.0556C15.72 23.686 14.16 24.0008 12.5 24ZM12.5 21.6C15.16 21.6 17.4252 20.6652 19.2956 18.7956C21.166 16.926 22.1008 14.6608 22.1 12C22.1 9.34 21.1652 7.0748 19.2956 5.2044C17.426 3.334 15.1608 2.3992 12.5 2.4C9.84 2.4 7.5748 3.3352 5.7044 5.2056C3.834 7.076 2.8992 9.3408 2.9 12C2.9 14.66 3.8352 16.9252 5.7056 18.7956C7.576 20.666 9.8408 21.6008 12.5 21.6Z" fill="white"/>
</svg>
