<svg width="21" height="20" viewBox="0 0 21 20" fill="none" xmlns="http://www.w3.org/2000/svg">
<path d="M18.291 2V2.01M18.291 18V18.01M18.291 14V14.01M18.291 10V10.01M18.291 6V6.01M6.58802 2.289C6.77518 2.10389 7.02778 2.00005 7.29102 2H13.291C13.5562 2 13.8106 2.10536 13.9981 2.29289C14.1857 2.48043 14.291 2.73478 14.291 3V10M14.291 14V17C14.291 17.2652 14.1857 17.5196 13.9981 17.7071C13.8106 17.8946 13.5562 18 13.291 18H7.29102C7.0258 18 6.77145 17.8946 6.58391 17.7071C6.39637 17.5196 6.29102 17.2652 6.29102 17V6M2.29102 2V2.01M2.29102 18V18.01M2.29102 14V14.01M2.29102 10V10.01M2.29102 6V6.01M1.29102 1L19.291 19" stroke="white" stroke-width="2" stroke-linecap="round" stroke-linejoin="round"/>
</svg>
