<svg width="31" height="22" viewBox="0 0 31 22" fill="none" xmlns="http://www.w3.org/2000/svg">
<path d="M30.4401 10.66C29.2639 7.61765 27.222 4.98662 24.5669 3.09209C21.9117 1.19756 18.7595 0.122573 15.5001 0C12.2406 0.122573 9.08845 1.19756 6.43326 3.09209C3.77808 4.98662 1.73622 7.61765 0.560063 10.66C0.48063 10.8797 0.48063 11.1203 0.560063 11.34C1.73622 14.3824 3.77808 17.0134 6.43326 18.9079C9.08845 20.8024 12.2406 21.8774 15.5001 22C18.7595 21.8774 21.9117 20.8024 24.5669 18.9079C27.222 17.0134 29.2639 14.3824 30.4401 11.34C30.5195 11.1203 30.5195 10.8797 30.4401 10.66ZM15.5001 20C10.2001 20 4.60006 16.07 2.57006 11C4.60006 5.93 10.2001 2 15.5001 2C20.8001 2 26.4001 5.93 28.4301 11C26.4001 16.07 20.8001 20 15.5001 20Z" fill="white"/>
<path d="M15.5005 5C14.3138 5 13.1538 5.35189 12.1671 6.01118C11.1804 6.67047 10.4113 7.60754 9.95721 8.7039C9.50309 9.80026 9.38427 11.0067 9.61578 12.1705C9.84729 13.3344 10.4187 14.4035 11.2579 15.2426C12.097 16.0818 13.1661 16.6532 14.3299 16.8847C15.4938 17.1162 16.7002 16.9974 17.7966 16.5433C18.8929 16.0892 19.83 15.3201 20.4893 14.3334C21.1486 13.3467 21.5005 12.1867 21.5005 11C21.5005 9.4087 20.8684 7.88258 19.7431 6.75736C18.6179 5.63214 17.0918 5 15.5005 5ZM15.5005 15C14.7094 15 13.936 14.7654 13.2782 14.3259C12.6204 13.8864 12.1077 13.2616 11.805 12.5307C11.5022 11.7998 11.423 10.9956 11.5773 10.2196C11.7317 9.44371 12.1127 8.73098 12.6721 8.17157C13.2315 7.61216 13.9442 7.2312 14.7201 7.07686C15.4961 6.92252 16.3003 7.00173 17.0312 7.30448C17.7621 7.60723 18.3868 8.11992 18.8264 8.77772C19.2659 9.43552 19.5005 10.2089 19.5005 11C19.5005 12.0609 19.0791 13.0783 18.3289 13.8284C17.5788 14.5786 16.5614 15 15.5005 15Z" fill="white"/>
</svg>
