<svg width="21" height="24" viewBox="0 0 21 24" fill="none" xmlns="http://www.w3.org/2000/svg">
<path d="M20.7832 20.25L17.0566 23.9648L16.002 22.9102L17.9121 21H10.7168V19.5H17.9121L16.002 17.5898L17.0566 16.5352L20.7832 20.25ZM13.4707 22.5L14.9707 24H0.216797V3H6.2168C6.2168 2.58594 6.29492 2.19922 6.45117 1.83984C6.60742 1.48047 6.82227 1.16016 7.0957 0.878906C7.36914 0.597656 7.68555 0.382812 8.04492 0.234375C8.4043 0.0859375 8.79492 0.0078125 9.2168 0C9.63086 0 10.0176 0.078125 10.377 0.234375C10.7363 0.390625 11.0566 0.605469 11.3379 0.878906C11.6191 1.15234 11.834 1.46875 11.9824 1.82812C12.1309 2.1875 12.209 2.57812 12.2168 3H18.2168V15.5742L16.7168 14.0742V4.5H15.2168V7.5H3.2168V4.5H1.7168V22.5H13.4707ZM4.7168 4.5V6H13.7168V4.5H10.7168V3C10.7168 2.78906 10.6777 2.59375 10.5996 2.41406C10.5215 2.23438 10.416 2.07812 10.2832 1.94531C10.1504 1.8125 9.99023 1.70312 9.80273 1.61719C9.61523 1.53125 9.41992 1.49219 9.2168 1.5C9.00586 1.5 8.81055 1.53906 8.63086 1.61719C8.45117 1.69531 8.29492 1.80078 8.16211 1.93359C8.0293 2.06641 7.91992 2.22656 7.83398 2.41406C7.74805 2.60156 7.70898 2.79688 7.7168 3V4.5H4.7168Z" fill="white"/>
</svg>
