<svg width="23" height="16" viewBox="0 0 23 16" fill="none" xmlns="http://www.w3.org/2000/svg">
<path d="M19.5498 4H16.5498V0H0.549805V13H2.5498C2.5498 14.66 3.8898 16 5.5498 16C7.2098 16 8.5498 14.66 8.5498 13H14.5498C14.5498 14.66 15.8898 16 17.5498 16C19.2098 16 20.5498 14.66 20.5498 13H22.5498V8L19.5498 4ZM5.5498 14.5C4.7198 14.5 4.0498 13.83 4.0498 13C4.0498 12.17 4.7198 11.5 5.5498 11.5C6.3798 11.5 7.0498 12.17 7.0498 13C7.0498 13.83 6.3798 14.5 5.5498 14.5ZM14.5498 3H12.5498V10H10.5498V3H8.5498V10H6.5498V3H4.5498V10H2.5498V2H14.5498V3ZM17.5498 14.5C16.7198 14.5 16.0498 13.83 16.0498 13C16.0498 12.17 16.7198 11.5 17.5498 11.5C18.3798 11.5 19.0498 12.17 19.0498 13C19.0498 13.83 18.3798 14.5 17.5498 14.5ZM16.5498 8V5.5H19.0498L21.0098 8H16.5498Z" fill="white"/>
</svg>
