<svg width="23" height="24" viewBox="0 0 23 24" fill="none" xmlns="http://www.w3.org/2000/svg">
<path d="M8.5498 3.5C8.55228 3.80411 8.6255 4.10347 8.76365 4.3744C8.90181 4.64533 9.10111 4.8804 9.3458 5.061L4.0498 8.487H2.5468C2.01734 8.487 1.50955 8.69726 1.13507 9.07155C0.760584 9.44585 0.55007 9.95354 0.549805 10.483V18.503C0.549805 19.0326 0.760202 19.5406 1.13471 19.9151C1.50922 20.2896 2.01717 20.5 2.5468 20.5H10.6298C10.5793 20.169 10.5526 19.8348 10.5498 19.5C10.5455 18.1043 10.8892 16.7295 11.5498 15.5V12.5C11.5498 12.2348 11.6552 11.9804 11.8427 11.7929C12.0302 11.6054 12.2846 11.5 12.5498 11.5C12.815 11.5 13.0694 11.6054 13.2569 11.7929C13.4444 11.9804 13.5498 12.2348 13.5498 12.5V13.752C14.1594 13.3235 14.835 12.9975 15.5498 12.787V12.502C15.5498 12.2366 15.6551 11.982 15.8426 11.7942C16.0301 11.6063 16.2844 11.5005 16.5498 11.5C16.6819 11.4973 16.8131 11.5213 16.9357 11.5706C17.0582 11.6199 17.1696 11.6934 17.263 11.7868C17.3564 11.8802 17.4299 11.9916 17.4792 12.1141C17.5285 12.2367 17.5525 12.3679 17.5498 12.5C18.5873 12.5114 19.6102 12.745 20.5498 13.185V10.483C20.5495 9.95354 20.339 9.44585 19.9645 9.07155C19.5901 8.69726 19.0823 8.487 18.5528 8.487H17.0618L11.7598 5.057C12.0029 4.87618 12.2007 4.64147 12.3377 4.37132C12.4748 4.10117 12.5474 3.80293 12.5498 3.5C12.5476 3.15278 12.4556 2.81203 12.2829 2.51084C12.1101 2.20964 11.8624 1.95823 11.5638 1.781V0.5H10.5498V2.506C10.7456 2.50758 10.9365 2.56705 11.0985 2.67692C11.2606 2.78679 11.3865 2.94215 11.4604 3.12343C11.5343 3.30471 11.5529 3.50381 11.5139 3.69565C11.4749 3.8875 11.38 4.06351 11.2411 4.20153C11.1023 4.33954 10.9257 4.43338 10.7336 4.47124C10.5416 4.5091 10.3426 4.48928 10.1617 4.41427C9.98091 4.33927 9.82631 4.21243 9.71742 4.04974C9.60852 3.88705 9.55021 3.69577 9.5498 3.5M5.5498 16.5C5.5498 16.7652 5.44445 17.0196 5.25691 17.2071C5.06938 17.3946 4.81502 17.5 4.5498 17.5C4.28459 17.5 4.03023 17.3946 3.8427 17.2071C3.65516 17.0196 3.5498 16.7652 3.5498 16.5V12.502C3.5498 12.2368 3.65516 11.9824 3.8427 11.7949C4.03023 11.6074 4.28459 11.502 4.5498 11.502C4.81502 11.502 5.06938 11.6074 5.25691 11.7949C5.44445 11.9824 5.5498 12.2368 5.5498 12.502V16.5ZM9.5498 16.5C9.5498 16.7652 9.44445 17.0196 9.25691 17.2071C9.06938 17.3946 8.81502 17.5 8.5498 17.5C8.28459 17.5 8.03023 17.3946 7.8427 17.2071C7.65516 17.0196 7.5498 16.7652 7.5498 16.5V12.5C7.5498 12.2348 7.65516 11.9804 7.8427 11.7929C8.03023 11.6054 8.28459 11.5 8.5498 11.5C8.81502 11.5 9.06938 11.6054 9.25691 11.7929C9.44445 11.9804 9.5498 12.2348 9.5498 12.5V16.5ZM10.5668 5.475L15.2218 8.487H5.8918L10.5448 5.476" fill="white"/>
<path d="M22.1999 19.819L21.1299 18.989C21.1536 18.8267 21.167 18.663 21.1699 18.499C21.1719 18.3348 21.1585 18.1707 21.1299 18.009L22.1899 17.179C22.2349 17.1405 22.2653 17.0878 22.2762 17.0296C22.2871 16.9714 22.2778 16.9112 22.2499 16.859L21.2499 15.13C21.2198 15.0777 21.1721 15.0379 21.1152 15.0178C21.0584 14.9976 20.9962 14.9984 20.9399 15.02L19.6999 15.52C19.4419 15.3167 19.156 15.1517 18.8509 15.03L18.6609 13.71C18.6538 13.6516 18.6253 13.5979 18.5811 13.5591C18.5368 13.5204 18.4798 13.4993 18.4209 13.5H16.4229C16.3634 13.5006 16.3059 13.5219 16.2603 13.5602C16.2147 13.5985 16.1838 13.6515 16.1729 13.71L15.9829 15.03C15.6805 15.1578 15.395 15.3224 15.1329 15.52L13.8929 15.02C13.8366 15.0004 13.7753 15.0007 13.7191 15.0207C13.6629 15.0407 13.6152 15.0793 13.5839 15.13L12.5839 16.86C12.5536 16.9116 12.543 16.9724 12.5541 17.0312C12.5651 17.09 12.597 17.1429 12.6439 17.18L13.7039 18.01C13.6639 18.3355 13.6639 18.6646 13.7039 18.99L12.6439 19.82C12.5992 19.8585 12.5689 19.911 12.558 19.969C12.5471 20.027 12.5562 20.0869 12.5839 20.139L13.5839 21.869C13.614 21.9213 13.6618 21.9611 13.7186 21.9813C13.7754 22.0014 13.8376 22.0006 13.8939 21.979L15.1339 21.479C15.3919 21.6823 15.6778 21.8473 15.9829 21.969L16.1729 23.289C16.1823 23.3483 16.2128 23.4021 16.2587 23.4407C16.3046 23.4793 16.3629 23.5 16.4229 23.499H18.4219C18.4815 23.4984 18.5389 23.4771 18.5845 23.4388C18.6301 23.4005 18.661 23.3476 18.6719 23.289L18.8619 21.969C19.1619 21.8433 19.4441 21.6786 19.7009 21.479L20.9509 21.979C21.0074 21.9988 21.0689 21.9987 21.1253 21.9787C21.1817 21.9587 21.2296 21.92 21.2609 21.869L22.2599 20.139C22.2878 20.0868 22.2971 20.0266 22.2862 19.9685C22.2753 19.9103 22.2449 19.8576 22.1999 19.819ZM17.4219 19.999C17.1252 19.999 16.8352 19.911 16.5886 19.7462C16.3419 19.5814 16.1496 19.3471 16.0361 19.073C15.9226 18.799 15.8929 18.4974 15.9507 18.2064C16.0086 17.9154 16.1515 17.6481 16.3613 17.4384C16.571 17.2286 16.8383 17.0857 17.1293 17.0278C17.4203 16.97 17.7219 16.9997 17.9959 17.1132C18.27 17.2267 18.5043 17.419 18.6691 17.6657C18.8339 17.9123 18.9219 18.2023 18.9219 18.499C18.9223 18.6961 18.8838 18.8913 18.8085 19.0735C18.7333 19.2557 18.6228 19.4212 18.4835 19.5606C18.3441 19.6999 18.1786 19.8104 17.9964 19.8856C17.8142 19.9609 17.619 19.9994 17.4219 19.999Z" fill="white"/>
</svg>
