<svg width="25" height="24" viewBox="0 0 25 24" fill="none" xmlns="http://www.w3.org/2000/svg">
<path d="M23.9562 8.61204L23.9792 8.67839L24.0647 8.96509L24.1362 9.2224L24.1667 9.33992L24.2167 9.55266C24.8649 12.5172 24.3917 15.6203 22.8905 18.2483C21.3924 20.8842 18.9711 22.8532 16.107 23.7644L15.9051 23.8252L15.6572 23.89L15.2987 23.9761C15.1721 24.0053 15.0409 24.0078 14.9134 23.9833C14.7858 23.9589 14.6646 23.908 14.5572 23.834C14.4499 23.7599 14.3588 23.6642 14.2896 23.5529C14.2204 23.4416 14.1746 23.317 14.155 23.1869C14.1148 22.92 14.175 22.6475 14.3237 22.4234C14.4724 22.1993 14.6987 22.0399 14.9578 21.9768L15.2462 21.9034C15.4262 21.8558 15.5812 21.8092 15.7106 21.7651C18.0107 20.9781 19.948 19.3673 21.1589 17.2352C22.3766 15.1046 22.784 12.5965 22.3046 10.1828L22.2701 10.0242L22.2241 9.83936L22.1666 9.62763L22.0977 9.38956C22.0204 9.12986 22.0423 8.85023 22.1589 8.6061C22.2756 8.36198 22.4785 8.17119 22.7275 8.07157C22.8432 8.02525 22.9668 8.00249 23.0912 8.00459C23.2155 8.00669 23.3383 8.0336 23.4524 8.0838C23.5665 8.13399 23.6697 8.20648 23.7562 8.29711C23.8426 8.38775 23.9106 8.49477 23.9562 8.61204ZM2.19228 8.06397C2.45731 8.14953 2.67871 8.33692 2.80898 8.58596C2.93925 8.83501 2.96802 9.12586 2.88911 9.39614C2.79913 9.7031 2.73415 9.95839 2.69416 10.1625C2.21678 12.5743 2.62473 15.0798 3.84139 17.2084C5.05338 19.3423 6.99307 20.954 9.29563 21.7403L9.44859 21.7894L9.53557 21.8147L9.73053 21.8684L10.0774 21.9551C10.3381 22.0172 10.5661 22.1762 10.7164 22.4008C10.8667 22.6253 10.9282 22.8988 10.8888 23.1672C10.8517 23.4188 10.7176 23.6452 10.5159 23.7966C10.3141 23.948 10.0613 24.012 9.81301 23.9746L9.74402 23.9619L9.45609 23.8935L9.20115 23.8277L8.9782 23.7644L8.87823 23.734C6.02027 22.8202 3.60486 20.8527 2.10979 18.2209C0.60579 15.5884 0.133482 12.4791 0.786601 9.51011L0.825092 9.34802L0.87508 9.15808L0.972058 8.82123L1.01005 8.6946C1.04677 8.57449 1.10647 8.46289 1.18576 8.36617C1.26505 8.26945 1.36236 8.1895 1.47214 8.13089C1.58193 8.07228 1.70203 8.03616 1.82559 8.02459C1.94915 8.01302 2.07375 8.02674 2.19228 8.06397ZM12.5229 4.05225C16.9404 4.05225 20.521 7.68053 20.521 12.1567C20.521 16.6329 16.9404 20.2612 12.5229 20.2612C8.1059 20.2612 4.52473 16.6329 4.52473 12.1567C4.52473 7.68053 8.1059 4.05225 12.5229 4.05225ZM12.5229 6.07837C9.21015 6.07837 6.52427 8.79996 6.52427 12.1567C6.52427 15.5135 9.21015 18.2351 12.5229 18.2351C15.8361 18.2351 18.5215 15.5135 18.5215 12.1567C18.5215 8.79996 15.8361 6.07837 12.5229 6.07837ZM12.5229 8.64655e-06C15.5249 -0.00362247 18.4185 1.13653 20.6295 3.19419L20.749 3.30917L20.8864 3.44796L21.0414 3.61106L21.2144 3.79797C21.3026 3.89445 21.3703 4.00833 21.4131 4.13248C21.456 4.25664 21.4732 4.38842 21.4636 4.5196C21.454 4.65077 21.4178 4.77854 21.3573 4.89491C21.2967 5.01129 21.2132 5.11378 21.1119 5.196C20.9038 5.36492 20.6407 5.44847 20.3747 5.43008C20.1087 5.41169 19.8592 5.29271 19.6757 5.09672C19.5672 4.98021 19.4663 4.87638 19.3733 4.78419L19.1983 4.61501L19.1184 4.54257C17.2958 2.91764 14.9505 2.02282 12.5229 2.02613C10.093 2.02275 7.74571 2.91911 5.92241 4.54662L5.86542 4.59829L5.73895 4.71986L5.59549 4.86422L5.34804 5.12508C4.96813 5.53486 4.34128 5.58096 3.90688 5.23145C3.80946 5.15309 3.72823 5.05604 3.66784 4.94585C3.60745 4.83566 3.56908 4.71449 3.55492 4.58927C3.54076 4.46405 3.55109 4.33723 3.58532 4.21606C3.61955 4.09488 3.67701 3.98173 3.75441 3.88307L3.7994 3.82938L4.00186 3.61106L4.18581 3.41959C4.27329 3.33095 4.35377 3.25244 4.42776 3.18406C6.63723 1.13297 9.52587 -0.00328803 12.5224 8.64655e-06" fill="white"/>
</svg>
