<svg width="21" height="20" viewBox="0 0 21 20" fill="none" xmlns="http://www.w3.org/2000/svg">
<path d="M10.5 20C9.11667 20 7.81667 19.7373 6.6 19.212C5.38333 18.6867 4.325 17.9743 3.425 17.075C2.525 16.175 1.81267 15.1167 1.288 13.9C0.763333 12.6833 0.500667 11.3833 0.5 10C0.5 8.61667 0.762667 7.31667 1.288 6.1C1.81333 4.88333 2.52567 3.825 3.425 2.925C4.325 2.025 5.38333 1.31267 6.6 0.788C7.81667 0.263333 9.11667 0.000666667 10.5 0H11.5V8.275C11.8 8.45833 12.0417 8.696 12.225 8.988C12.4083 9.28 12.5 9.61733 12.5 10C12.5 10.55 12.3043 11.021 11.913 11.413C11.5217 11.805 11.0507 12.0007 10.5 12C9.95 12 9.47933 11.8043 9.088 11.413C8.69667 11.0217 8.50067 10.5507 8.5 10C8.5 9.61667 8.59167 9.275 8.775 8.975C8.95833 8.675 9.2 8.44167 9.5 8.275V6.125C8.63333 6.35833 7.91667 6.82933 7.35 7.538C6.78333 8.24667 6.5 9.06733 6.5 10C6.5 11.1 6.89167 12.0417 7.675 12.825C8.45833 13.6083 9.4 14 10.5 14C11.6 14 12.5417 13.6083 13.325 12.825C14.1083 12.0417 14.5 11.1 14.5 10C14.5 9.4 14.379 8.846 14.137 8.338C13.895 7.83 13.566 7.384 13.15 7L14.575 5.575C15.1583 6.125 15.625 6.77933 15.975 7.538C16.325 8.29667 16.5 9.11733 16.5 10C16.5 11.6667 15.9167 13.0833 14.75 14.25C13.5833 15.4167 12.1667 16 10.5 16C8.83333 16 7.41667 15.4167 6.25 14.25C5.08333 13.0833 4.5 11.6667 4.5 10C4.5 8.5 4.975 7.196 5.925 6.088C6.875 4.98 8.06667 4.309 9.5 4.075V2.05C7.51667 2.3 5.854 3.175 4.512 4.675C3.17 6.175 2.49933 7.95 2.5 10C2.5 12.2333 3.275 14.125 4.825 15.675C6.375 17.225 8.26667 18 10.5 18C12.7333 18 14.625 17.225 16.175 15.675C17.725 14.125 18.5 12.2333 18.5 10C18.5 8.85 18.275 7.775 17.825 6.775C17.375 5.775 16.7583 4.90833 15.975 4.175L17.4 2.75C18.35 3.66667 19.1043 4.746 19.663 5.988C20.2217 7.23 20.5007 8.56733 20.5 10C20.5 11.3833 20.2373 12.6833 19.712 13.9C19.1867 15.1167 18.4743 16.175 17.575 17.075C16.675 17.975 15.6167 18.6877 14.4 19.213C13.1833 19.7383 11.8833 20.0007 10.5 20Z" fill="white"/>
</svg>
